<svg width="108" height="110" viewBox="0 0 108 110" fill="none" xmlns="http://www.w3.org/2000/svg">
<path d="M107 55C107 84.8408 83.2539 109 54 109C24.7461 109 1 84.8408 1 55C1 25.1592 24.7461 1 54 1C83.2539 1 107 25.1592 107 55Z" stroke="white" stroke-width="2"/>
<path d="M53.2929 81.7071C53.6834 82.0976 54.3166 82.0976 54.7071 81.7071L61.0711 75.3431C61.4616 74.9526 61.4616 74.3195 61.0711 73.9289C60.6805 73.5384 60.0474 73.5384 59.6569 73.9289L54 79.5858L48.3431 73.9289C47.9526 73.5384 47.3195 73.5384 46.9289 73.9289C46.5384 74.3195 46.5384 74.9526 46.9289 75.3431L53.2929 81.7071ZM53 31L53 81L55 81L55 31L53 31Z" fill="white"/>
</svg>
