<?xml version="1.0" standalone="no"?>
<!DOCTYPE svg PUBLIC "-//W3C//DTD SVG 20010904//EN"
 "http://www.w3.org/TR/2001/REC-SVG-20010904/DTD/svg10.dtd">
<svg version="1.0" xmlns="http://www.w3.org/2000/svg"
 width="260.000000pt" height="260.000000pt" viewBox="0 0 260.000000 260.000000"
 preserveAspectRatio="xMidYMid meet">
<metadata>
Created by potrace 1.11, written by Peter Selinger 2001-2013
</metadata>
<g transform="translate(0.000000,260.000000) scale(0.100000,-0.100000)"
fill="#000000" stroke="none">
<path d="M1090 2585 c-178 -28 -395 -117 -547 -224 -93 -66 -238 -211 -304
-304 -308 -436 -317 -1017 -22 -1461 83 -125 237 -281 353 -358 242 -160 480
-226 775 -215 197 7 338 41 510 126 381 187 641 535 710 950 36 212 8 486 -69
679 -145 366 -464 660 -834 768 -181 52 -392 67 -572 39z m477 -134 c297 -75
548 -253 711 -504 271 -419 248 -959 -58 -1356 -434 -561 -1257 -613 -1759
-110 -154 154 -259 339 -313 556 -20 76 -23 113 -22 278 0 175 2 198 28 290
88 323 309 597 602 747 111 57 184 83 299 108 124 27 390 22 512 -9z"/>
<path d="M1412 2075 c-173 -88 -178 -330 -8 -417 26 -13 62 -21 98 -22 54 -1
56 -2 44 -21 -58 -92 -106 -173 -106 -178 0 -4 28 -7 63 -7 l62 0 85 141 c90
152 119 221 120 285 0 88 -55 180 -133 221 -18 9 -63 18 -102 20 -61 4 -77 1
-123 -22z m163 -99 c113 -47 88 -217 -33 -233 -80 -11 -145 42 -145 118 0 46
22 83 66 109 38 24 66 25 112 6z"/>
<path d="M900 1760 l0 -330 60 0 60 0 0 330 0 330 -60 0 -60 0 0 -330z"/>
<path d="M1013 1178 c-24 -32 -146 -243 -170 -294 -32 -71 -37 -170 -10 -225
115 -233 468 -160 468 96 0 129 -94 226 -221 227 -28 0 -50 2 -50 5 0 3 24 44
53 91 29 48 57 93 61 100 10 17 -118 17 -131 0z m102 -312 c90 -38 98 -164 12
-216 -116 -71 -246 64 -171 178 17 26 66 51 102 52 12 0 38 -6 57 -14z"/>
<path d="M1560 860 l0 -330 60 0 60 0 0 330 0 330 -60 0 -60 0 0 -330z"/>
</g>
</svg>
